PathFileType	4	(X/Y/Z)	C:/Users/opensim2020/Desktop/walking_exp_matlab/subject02_walking11_straight_02.trc	
DataRate	CameraRate	NumFrames	NumMarkers	Units	OrigDataRate	OrigDataStartFrame	OrigNumFrames	
100.00	100.00	8	42	mm	100.00	1835	230	
Frame#	Time	LFHD			RFHD			LBHD			RBHD			C7			T10			CLAV			STRN			RBAK			LSHO			LUPA			LELB			LFRM			LWRA			LWRB			LFIN			RSHO			RUPA			RELB			RFRM			RWRA			RWRB			RFIN			LASI			RASI			LPSI			RPSI			LTHI			LKNE			LTIB			LANK			LHEE			LTOE			RTHI			RKNE			RTIB			RANK			RHEE			RTOE			*39			*40			*41			
		X1	Y1	Z1	X2	Y2	Z2	X3	Y3	Z3	X4	Y4	Z4	X5	Y5	Z5	X6	Y6	Z6	X7	Y7	Z7	X8	Y8	Z8	X9	Y9	Z9	X10	Y10	Z10	X11	Y11	Z11	X12	Y12	Z12	X13	Y13	Z13	X14	Y14	Z14	X15	Y15	Z15	X16	Y16	Z16	X17	Y17	Z17	X18	Y18	Z18	X19	Y19	Z19	X20	Y20	Z20	X21	Y21	Z21	X22	Y22	Z22	X23	Y23	Z23	X24	Y24	Z24	X25	Y25	Z25	X26	Y26	Z26	X27	Y27	Z27	X28	Y28	Z28	X29	Y29	Z29	X30	Y30	Z30	X31	Y31	Z31	X32	Y32	Z32	X33	Y33	Z33	X34	Y34	Z34	X35	Y35	Z35	X36	Y36	Z36	X37	Y37	Z37	X38	Y38	Z38	X39	Y39	Z39	X40	Y40	Z40	X41	Y41	Z41	X42	Y42	Z42	

202	2.010	-1049.81909	-680.51520	1718.37671	-1188.50500	-665.16589	1684.88232	-1023.71948	-542.66498	1664.11316	-1160.99866	-514.89606	1630.87695	-1079.53479	-472.39880	1511.09644	-1080.91003	-426.24310	1230.38086	-1071.64111	-613.02637	1445.16528	-1078.17578	-670.54785	1275.87024	-1135.86987	-415.14740	1330.38086	-901.30017	-550.04767	1493.71472	-814.08514	-555.09747	1295.42444	-798.75079	-569.31104	1153.96667	-788.76996	-608.31213	1026.27966	-822.59222	-690.74670	919.35986	-790.12897	-645.70355	909.60779	-784.22858	-682.82617	855.25653	-1267.62244	-540.79114	1468.16003	-1342.24475	-510.27661	1272.44482	-1352.78687	-522.02789	1127.65076	-1375.75574	-542.65192	1011.42548	-1365.45581	-586.23041	881.77161	-1390.81152	-535.83850	882.08374	-1397.28943	-567.51086	815.67932	-954.13849	-664.80396	967.20447	-1205.42896	-679.47772	976.41650	-1038.20386	-457.41983	1011.93781	-1154.91858	-457.47610	1017.04407	-884.15570	-551.82465	665.36206	-890.77478	-497.68277	481.39722	-887.71552	-348.84775	361.79974	-901.68317	-224.21539	174.93030	-958.49475	-189.19264	172.62013	-884.03949	-301.79932	37.74951	-1285.76807	-657.32959	674.40820	-1247.48999	-693.72949	467.23730	-1257.63745	-669.55157	279.43225	-1223.50806	-666.70483	87.12347	-1169.36658	-634.17334	35.21550	-1239.14819	-821.68481	33.32509	-1138.18713	-580.64172	1787.50183	-3360.45313	2845.26880	1034.09961			 
203	2.020	-1052.21582	-687.85278	1720.30542	-1190.78918	-672.56683	1686.85864	-1025.89563	-550.49078	1665.33313	-1163.23096	-522.70740	1632.26794	-1081.83130	-480.26334	1512.21399	-1084.09460	-434.56345	1231.67749	-1073.87805	-621.08551	1446.84924	-1080.48596	-678.78998	1277.49438	-1138.97986	-423.73465	1331.52905	-903.74310	-557.46228	1495.23315	-817.31903	-560.84222	1296.70007	-803.41833	-572.93188	1154.99500	-792.78314	-607.62091	1026.44360	-825.56842	-688.01251	916.95349	-793.50787	-641.95166	908.43494	-787.47791	-676.99707	852.93658	-1269.85376	-549.31934	1470.28137	-1345.26904	-520.31201	1274.62280	-1356.29272	-533.32867	1130.05347	-1379.22388	-554.97479	1013.75604	-1368.49426	-599.58386	884.58801	-1394.58752	-549.41766	884.56226	-1400.79749	-581.58081	818.34180	-956.92969	-672.44659	968.88922	-1207.80225	-687.95435	977.57239	-1041.49011	-465.30875	1013.66583	-1158.33630	-466.27777	1019.11633	-886.17883	-564.47473	665.07495	-891.89081	-514.34485	481.22708	-888.58154	-364.83063	363.97964	-903.57910	-236.18568	180.62163	-960.86121	-201.65121	178.84024	-882.59094	-310.83728	42.32501	-1287.42102	-663.04108	674.82202	-1248.69812	-696.87598	467.24414	-1258.87073	-671.57538	279.53485	-1223.62903	-666.74298	87.22299	-1169.97058	-633.99890	34.95331	-1239.10559	-821.76581	33.34081	-1140.46912	-587.58093	1789.12109	-3357.29492	2845.75146	1034.42456			 
204	2.030	-1054.53748	-695.36389	1722.56946	-1192.81140	-680.00336	1688.78735	-1027.81140	-558.23480	1666.58276	-1165.39551	-530.38702	1633.41162	-1084.71863	-488.32913	1513.67627	-1087.30542	-442.75769	1233.09302	-1075.91235	-629.21313	1448.50110	-1082.61365	-687.26849	1279.24231	-1142.04126	-432.44815	1332.92224	-906.10620	-564.64886	1496.68225	-820.30566	-566.55988	1297.95801	-807.78204	-575.75745	1155.89612	-796.71893	-607.63245	1026.75000	-828.53552	-684.89655	914.36615	-796.99567	-638.38934	907.50983	-790.91058	-671.60291	850.87622	-1272.07239	-557.94098	1472.46558	-1348.27759	-530.29486	1276.76245	-1359.32434	-544.61798	1132.07568	-1382.44019	-567.49731	1016.20038	-1371.36938	-612.94366	887.23212	-1397.96704	-563.12933	886.85706	-1404.21521	-596.01984	821.25598	-959.16113	-679.65594	970.63458	-1209.68896	-696.25696	978.44965	-1044.83411	-472.96710	1015.34808	-1161.75793	-474.81403	1021.09644	-888.07410	-577.00775	664.84985	-893.14728	-530.99945	481.18842	-889.56158	-380.73996	366.19489	-906.46857	-248.75244	185.70546	-964.12201	-215.15755	183.52263	-880.58026	-322.30005	47.72145	-1289.05164	-668.33051	675.02643	-1249.71619	-699.65405	467.06696	-1259.79590	-673.73114	279.65372	-1223.94531	-666.91028	87.31980	-1170.22180	-633.98962	35.03334	-1239.03040	-821.68481	33.27805	-1142.63892	-594.59259	1790.58154	-3360.25830	2845.18018	1034.25085			 
205	2.040	-1056.42334	-702.74750	1724.44934	-1194.67517	-687.45123	1690.79456	-1030.33179	-565.19861	1668.17310	-1167.33679	-538.13885	1634.51172	-1086.89270	-496.17148	1514.78406	-1090.47729	-450.86331	1234.46008	-1077.84485	-637.26959	1450.03467	-1084.48901	-695.33942	1280.74097	-1145.46960	-440.84113	1334.59912	-908.29272	-571.71210	1498.03687	-823.23389	-572.60632	1299.28723	-812.12891	-579.30676	1156.92847	-800.54187	-607.27161	1027.07874	-831.38470	-682.07532	912.45026	-800.13568	-635.28851	906.96417	-794.37500	-666.05194	848.74054	-1274.13538	-566.89246	1474.34253	-1351.12903	-540.26581	1278.81482	-1363.04504	-555.67737	1134.22290	-1385.60217	-580.03729	1018.40381	-1374.24231	-626.57617	890.05627	-1401.49438	-577.12347	889.13483	-1407.53357	-610.75470	823.87988	-960.76953	-686.51392	972.31250	-1211.28967	-704.38812	979.04315	-1048.20911	-480.44589	1016.83319	-1165.08423	-483.11896	1022.90125	-889.80487	-589.47260	665.04230	-894.55463	-547.66583	481.40057	-891.32025	-396.60364	368.57367	-909.85559	-262.42090	190.05304	-968.29169	-229.38884	186.36572	-878.47070	-335.43765	53.16815	-1291.12683	-674.30042	675.53845	-1250.96667	-702.21100	467.11627	-1260.61206	-675.88477	279.65866	-1224.23499	-667.10657	87.38376	-1170.17932	-634.06921	34.81422	-1238.95520	-821.62970	33.18047	-1144.64807	-601.35657	1792.09595	-3360.28174	2845.19287	1034.18359			 
206	2.050	-1057.96680	-709.53748	1726.21509	-1196.34607	-694.88129	1692.79382	-1032.03918	-572.53723	1669.11890	-1169.25464	-545.87921	1635.76794	-1089.41260	-504.12793	1516.13293	-1093.67871	-458.75009	1235.95898	-1079.62329	-645.16663	1451.53320	-1086.16809	-703.08533	1281.95996	-1148.12268	-449.43594	1335.90479	-910.34186	-578.64911	1499.29065	-826.03979	-577.29260	1300.14417	-816.12012	-582.96088	1157.68713	-804.23682	-607.16602	1027.27393	-834.18597	-678.55597	910.22009	-803.29120	-631.03503	906.38733	-797.65479	-660.77533	847.07001	-1276.22681	-576.05402	1476.17114	-1354.16663	-550.24310	1280.81323	-1366.51453	-566.72412	1136.20276	-1388.75208	-592.64014	1020.68274	-1376.98523	-640.26300	892.77667	-1404.70117	-591.31677	891.16382	-1410.86182	-625.90228	826.71381	-961.97522	-693.06909	973.86884	-1212.70105	-712.40942	979.47485	-1051.56189	-487.76831	1018.19867	-1168.39673	-491.11441	1024.60083	-891.57037	-601.65253	665.78833	-896.07007	-564.14880	481.99902	-894.13385	-412.43390	370.96225	-913.58228	-276.98764	193.57388	-972.66956	-244.88588	188.25229	-876.64209	-350.17560	58.27355	-1292.02686	-678.84259	676.21313	-1251.70605	-704.49066	466.91782	-1261.13574	-677.58966	279.60263	-1224.35083	-667.19897	87.39146	-1169.87183	-633.96979	34.95017	-1238.88928	-821.63251	33.15569	-1146.44263	-608.10730	1793.69897	-3357.36914	2846.03833	1034.21765			 
207	2.060	-1059.29358	-716.48230	1728.42786	-1197.81897	-702.35590	1694.77930	-1033.92310	-580.50378	1669.99121	-1171.10901	-553.58929	1636.88074	-1091.84851	-512.01544	1517.60925	-1096.74084	-466.59167	1237.43115	-1081.22266	-653.02118	1452.98938	-1087.64355	-710.91711	1283.25757	-1152.20337	-457.38626	1337.86035	-912.25183	-585.44843	1500.67175	-828.66791	-582.52301	1301.05420	-819.86108	-585.71863	1158.43677	-807.62158	-607.12915	1027.84155	-837.01831	-675.52057	908.21906	-806.18329	-628.03174	906.24023	-800.97687	-655.23871	845.55212	-1278.08435	-585.31311	1477.87524	-1356.92920	-560.27850	1282.61169	-1370.41675	-577.60724	1138.33398	-1391.92566	-605.17084	1022.68896	-1379.76245	-654.33521	895.48004	-1407.99963	-605.47321	893.35187	-1414.00928	-641.17249	829.38892	-962.52637	-699.99225	975.43872	-1213.96130	-720.40100	979.84174	-1054.92773	-494.91000	1019.47491	-1171.56531	-498.83182	1026.16980	-893.12640	-613.91742	666.83923	-897.73273	-580.51093	482.98172	-897.61511	-428.35306	373.06116	-917.13354	-292.68475	196.09206	-976.76892	-261.05136	189.15100	-875.05432	-366.36984	62.95152	-1293.12231	-683.66235	676.63470	-1252.47791	-706.37115	466.72293	-1261.59302	-678.60089	279.49503	-1224.42285	-667.19696	87.23237	-1170.19653	-633.99792	34.86583	-1238.83826	-821.67383	33.11105	-1147.69604	-614.75842	1794.87781	-3357.42773	2845.91968	1034.26086			 
208	2.070	-1060.66138	-723.74261	1730.43140	-1199.12817	-709.89343	1696.59570	-1035.15991	-587.56366	1671.25964	-1172.65210	-561.43280	1637.91272	-1094.39026	-520.16675	1519.18469	-1099.83130	-474.22244	1238.96826	-1082.78784	-660.88129	1454.33911	-1088.99414	-718.73828	1284.55652	-1154.72644	-466.26968	1339.68640	-913.97046	-592.35767	1501.73608	-831.39410	-588.11810	1301.79285	-823.42419	-589.80347	1159.35583	-810.90417	-607.08337	1028.35107	-839.81097	-672.58221	906.79156	-808.98590	-625.49969	906.31500	-804.43640	-649.78900	844.28735	-1280.11841	-594.91132	1479.36084	-1359.70911	-570.47772	1284.37988	-1373.83557	-588.65350	1140.10815	-1395.34778	-617.71698	1024.73877	-1382.30322	-668.27808	897.85010	-1411.02698	-619.84094	895.38647	-1417.03040	-656.73248	832.05621	-963.27277	-705.95569	976.72711	-1215.32446	-728.68665	980.17114	-1058.13135	-501.88617	1020.64905	-1174.48975	-506.43790	1027.62415	-894.61151	-626.16412	668.21857	-899.50781	-596.56006	484.22260	-901.32642	-444.53226	374.66602	-920.67511	-309.15652	197.53413	-980.72040	-277.86597	189.04619	-874.00488	-383.91522	66.98389	-1294.27942	-688.38214	676.84717	-1253.38977	-707.91833	466.50473	-1261.96143	-678.86292	279.43591	-1224.41931	-667.18585	87.24245	-1169.86597	-633.82141	35.01102	-1238.83191	-821.69940	33.14835	-1149.48340	-621.74292	1796.58826	-3360.27759	2845.17578	1034.23132			 
209	2.080	-1062.06860	-730.63995	1732.28979	-1200.22595	-717.43799	1698.49072	-1036.77283	-594.63837	1672.50659	-1174.08508	-569.09979	1638.84241	-1096.48706	-527.91150	1520.46997	-1102.85852	-481.71835	1240.46082	-1084.18970	-668.63745	1455.57544	-1090.17578	-726.65997	1285.76221	-1158.55664	-473.78085	1341.45520	-915.75824	-598.94507	1502.65479	-834.07800	-593.57275	1302.28149	-826.87354	-592.46918	1159.92346	-813.99988	-607.38770	1029.12988	-842.59155	-669.80237	905.48730	-811.66357	-622.76129	906.44476	-807.56317	-644.70978	843.48914	-1281.91638	-604.49017	1481.06934	-1362.59692	-580.71906	1286.12366	-1377.36365	-599.59186	1141.96851	-1398.56006	-630.31793	1026.71472	-1385.18250	-682.77081	900.92096	-1413.98145	-634.29480	897.41302	-1420.04041	-672.37378	835.19861	-963.77051	-712.09772	978.00146	-1216.58289	-735.17523	980.01428	-1061.21265	-508.67523	1021.89880	-1177.21521	-513.79028	1029.07104	-896.05945	-638.11548	669.50055	-901.27728	-612.29901	485.65887	-904.94427	-460.66815	375.84396	-924.24365	-326.15149	197.97733	-984.59857	-295.24454	187.94962	-873.79474	-402.58200	70.27975	-1295.41370	-692.94458	676.87573	-1254.32886	-709.33374	466.57828	-1262.31384	-678.70148	279.48077	-1224.36670	-667.16083	87.27370	-1169.74353	-633.92267	35.31815	-1238.86072	-821.62762	33.13477	-1150.34534	-628.33075	1797.59717	-3360.36475	2845.14966	1034.24390			 
